<svg width="87" height="92" viewBox="0 0 87 92" fill="none" xmlns="http://www.w3.org/2000/svg">
<path d="M7.23773 62.0934C7.54844 62.144 7.85833 62.1863 8.16904 62.2211C13.4611 62.8266 18.7101 61.4506 23.041 58.2986C26.463 55.8118 29.0084 52.4367 30.4492 48.5548C36.6138 52.6192 38.6148 60.8708 34.8655 67.3398C33.8671 69.0593 34.4529 71.2632 36.1697 72.2611C36.6121 72.519 37.0861 72.6692 37.5658 72.7247C38.9429 72.8823 40.3465 72.2312 41.0864 70.9538C46.5202 61.5808 43.9682 49.7368 35.5474 43.354C35.5541 43.3125 35.5632 43.2727 35.5673 43.232L37.2626 28.4086C40.1584 31.0131 43.8182 32.6787 47.7125 33.1258C50.2653 33.4194 52.9209 33.188 55.525 32.3544C57.1466 31.8368 58.0414 30.0998 57.5244 28.4766C57.0065 26.8525 55.2723 25.9566 53.6492 26.4759C47.0347 28.591 39.938 24.9248 37.8252 18.3056C37.5633 17.4819 36.9858 16.8474 36.2699 16.4882C35.6576 16.0022 34.9252 15.6795 34.114 15.5866L32.2025 15.3676C31.8214 15.3253 31.4452 15.3386 31.0798 15.3958C21.1519 14.7173 12.321 21.9951 11.1776 31.9919C10.9837 33.684 12.1984 35.2135 13.8895 35.4085C15.5814 35.6034 17.1093 34.3874 17.3032 32.6944C17.9196 27.3054 21.8636 23.0925 26.8441 21.8781L24.5457 41.9696C24.5109 42.279 24.5051 42.5834 24.52 42.8845C24.4811 43.0205 24.4488 43.1574 24.4256 43.3001C23.8381 47.0119 21.8462 50.2701 18.8145 52.4757C15.7828 54.6804 12.0733 55.5737 8.36376 54.9823C6.40253 54.6729 4.5598 56.0109 4.24908 57.9742C3.93671 59.9393 5.27568 61.7815 7.23773 62.0934Z" fill="white"/>
<path d="M34.9399 14.242C38.8685 14.242 42.0532 11.0538 42.0532 7.12101C42.0532 3.18819 38.8685 0 34.9399 0C31.0114 0 27.8267 3.18819 27.8267 7.12101C27.8267 11.0538 31.0114 14.242 34.9399 14.242Z" fill="white"/>
<path d="M76.824 75.564H6.05269C2.71522 75.564 0 78.2805 0 81.6232C0 84.9627 2.71522 87.6809 6.05269 87.6809H76.824C80.1607 87.6809 82.8776 84.9635 82.8776 81.6232C82.8767 78.2813 80.1607 75.564 76.824 75.564ZM6.05269 85.7026C3.80479 85.7026 1.97696 83.8728 1.97696 81.6232C1.97696 79.3721 3.80479 77.5414 6.05269 77.5414H8.91788C7.0188 77.928 5.58787 79.6076 5.58787 81.6232C5.58787 83.6389 7.0188 85.3177 8.91788 85.7026H6.05269ZM10.5767 85.7026C12.4766 85.3177 13.9059 83.6389 13.9059 81.6232C13.9059 79.6076 12.4766 77.928 10.5767 77.5414H72.2992C70.401 77.928 68.9692 79.6076 68.9692 81.6232C68.9692 83.6389 70.401 85.3177 72.3009 85.7026H10.5767ZM76.824 85.7026H73.9605C75.8588 85.3177 77.2905 83.6389 77.2905 81.6232C77.2905 79.6076 75.8588 77.928 73.9605 77.5414H76.824C79.0719 77.5414 80.8989 79.3721 80.8989 81.6232C80.8989 83.8728 79.0719 85.7026 76.824 85.7026Z" fill="white"/>
<path d="M79.8004 88.8955H3.07574C2.219 88.8955 1.52466 89.5898 1.52466 90.4466C1.52466 91.3043 2.219 92.0002 3.07574 92.0002H79.7995C80.6554 92.0002 81.3514 91.3043 81.3514 90.4466C81.3523 89.5898 80.6563 88.8955 79.8004 88.8955Z" fill="white"/>
<path d="M67.9618 29.7281L77.9842 43.0229L60.3431 72.747H79.7142L86.9998 44.4736L86.6999 44.3285L86.8615 44.2049L75.148 28.6697L81.9597 22.6494L79.9761 20.4016L73.3392 26.2684L72.7534 25.492L81.9779 17.3358L78.9652 13.9209L62.1569 28.7801L65.1687 32.1966L67.9618 29.7281Z" fill="white"/>
</svg>
