<svg width="90" height="63" viewBox="0 0 90 63" fill="none" xmlns="http://www.w3.org/2000/svg">
<path d="M11.4335 13.2323L32.2594 16.1192C32.9864 18.1091 36.6494 27.905 37.3364 29.6595H37.3262C31.293 32.8781 25.2606 36.0849 19.2242 39.3018C21.3198 38.8874 23.442 38.6807 25.5759 38.6807C28.3664 38.6807 31.1021 39.0461 33.7141 39.7541C38.9828 41.1997 43.7421 43.5044 48.3441 45.7475C52.4445 47.7374 56.3265 49.6243 60.2 50.707C60.7462 50.8623 61.2721 50.9931 61.7979 51.107C57.2069 40.9702 44.8619 13.6567 42.4228 7.64399C41.2772 4.80935 39.6988 3.75702 37.46 3.44562L13.0001 0.0540167C9.6251 -0.409281 6.53572 2.15869 6.09673 5.79755C5.6773 9.43726 8.0585 12.7681 11.4335 13.2323Z" fill="white"/>
<path d="M1.59398 60.606C2.27164 61.1318 3.04712 61.3807 3.82181 61.3807C3.9924 61.3807 4.15517 61.3689 4.32028 61.3368C5.33286 61.1951 6.29066 60.6162 6.92919 59.6575C9.40664 55.9325 13.2418 53.0042 17.7068 51.3966C20.2696 50.4793 22.9458 50.0169 25.5766 50.0169C35.11 50.0169 43.285 56.1629 51.8927 59.7005C56.4994 61.5984 61.3071 63.0002 66.5414 63.0002C68.7411 63.0002 71.0158 62.7487 73.3775 62.1816C78.9333 60.8617 83.6973 58.0153 87.1341 54.0245C87.9589 53.0701 88.7086 52.0565 89.3651 50.9772C90.5326 49.0793 90.0428 46.5223 88.2829 45.2624C87.6349 44.7982 86.9072 44.5805 86.1787 44.5805C84.9368 44.5805 83.7224 45.2295 82.9891 46.4295C82.6902 46.9139 82.367 47.3772 82.0133 47.8295C79.6235 50.8996 76.0373 53.108 71.7342 54.1291C67.7645 55.0659 63.3863 54.7874 59.4729 53.6971C55.3608 52.5409 51.3825 50.611 47.1569 48.5603C42.6644 46.3847 38.028 44.1273 32.9972 42.745C30.6058 42.0817 28.1002 41.7661 25.5664 41.7661C22.1163 41.7661 18.6075 42.372 15.2693 43.5704C12.352 44.6235 9.64453 46.0852 7.21872 47.9333C4.65363 49.8801 2.46571 52.2034 0.705827 54.8431C0.591579 55.0169 0.496112 55.1916 0.410035 55.3764C-0.423346 57.1604 0.0344262 59.4009 1.59398 60.606Z" fill="white"/>
<path d="M84.3329 26.9153C84.3329 34.9542 78.2942 41.4665 70.8423 41.4665C63.3927 41.4665 57.3494 34.9542 57.3494 26.9153C57.3494 18.8806 63.3935 12.3657 70.8423 12.3657C78.295 12.3657 84.3329 18.8806 84.3329 26.9153Z" fill="white"/>
</svg>
