<svg width="99" height="92" viewBox="0 0 99 92" fill="none" xmlns="http://www.w3.org/2000/svg">
<path fill-rule="evenodd" clip-rule="evenodd" d="M88.737 65.8896C86.4077 65.8896 84.3095 65.8896 82.2076 65.8896C72.3682 65.8896 62.5177 65.885 52.6801 65.8969C51.6553 65.8969 50.6121 65.9584 49.59 66.0438C47.0344 66.2641 44.7657 65.4141 42.8297 63.8775C42.2073 63.3819 41.9332 62.2446 41.8094 61.3533C41.4684 58.8943 41.9818 56.6023 43.8389 54.7995C44.2688 54.3782 44.8179 54.0854 45.5705 53.5521C45.5705 55.4209 45.5329 56.9731 45.5797 58.5216C45.6567 61.0366 47.7861 62.7724 50.2235 62.3603C51.9119 62.0757 53.2686 60.35 53.3199 58.3151C53.3713 56.1534 53.4089 53.989 53.3584 51.8402C53.3392 51.0627 53.6096 50.9067 54.32 50.7607C59.8567 49.6455 65.3374 50.1669 70.7512 51.3978C73.1785 51.954 75.3006 53.2483 76.6041 55.5935C76.781 55.9203 77.4575 56.1121 77.9011 56.1149C82.9336 56.1424 87.9725 56.2424 93.0004 56.0993C96.0538 56.0075 98.2712 58.3876 98.3289 61.1165C98.5278 69.753 98.8001 78.3859 98.999 87.0132C99.0586 89.6678 96.7788 91.9497 94.1865 91.9992C91.7216 92.0396 89.342 89.7981 89.265 87.2399C89.0633 80.6779 88.9056 74.113 88.7397 67.5436C88.726 67.0599 88.737 66.5743 88.737 65.8896Z" fill="white"/>
<path fill-rule="evenodd" clip-rule="evenodd" d="M16.6249 26.117C15.8238 25.1963 15.0795 24.3831 14.38 23.5304C12.5871 21.3338 10.4842 20.9547 8.54733 22.5097C6.63334 24.049 6.44817 26.5145 8.21 28.5926C9.57399 30.1943 11.048 31.7052 12.4881 33.2445C12.698 33.4776 12.9455 33.7475 13.2232 33.8237C15.1482 34.3405 14.9805 35.6292 14.8127 37.2364C14.4919 40.3573 14.1985 43.5222 14.425 46.6321C14.5909 48.9048 15.734 51.0894 16.2207 53.3612C17.7983 60.698 18.3519 68.1109 17.46 75.5964C16.9439 79.8977 16.1382 84.1035 14.5588 88.1542C13.8126 90.0543 11.7245 92.3949 9.16883 91.8836C5.98343 91.254 4.03827 88.4498 5.22901 85.3886C6.879 81.1387 7.46933 76.7117 7.94691 72.2497C8.42541 67.7943 8.0835 63.3617 7.253 58.9567C6.96242 57.4156 6.76992 55.8487 6.39867 54.3314C6.28684 53.8624 5.81476 53.2768 5.37385 53.1189C2.3617 52.0541 1.06554 49.6235 0.59896 46.7881C-0.380951 40.7759 -0.234285 34.7783 1.60545 28.9056C2.25353 26.8238 2.82003 24.6805 3.76144 22.7327C4.82752 20.5206 6.66817 19.0703 9.15324 18.4369C14.3782 17.1051 17.6314 20.7767 16.6249 26.117Z" fill="white"/>
<path fill-rule="evenodd" clip-rule="evenodd" d="M61.8505 24.777C62.0806 31.2215 56.0921 37.0429 49.4041 37.0383C43.1378 37.0337 36.9054 31.6172 37.0108 24.4364C37.1098 17.9019 42.6795 12.1926 49.6012 12.2678C56.6366 12.3403 62.1943 18.4077 61.8505 24.777ZM49.3491 29.3701C52.177 29.4023 54.2532 27.4288 54.278 24.6668C54.289 22.0728 52.0166 19.6817 49.5003 19.6477C47.0034 19.6211 44.4752 22.0012 44.5944 24.5365C44.7383 27.4224 46.0702 29.3224 49.3491 29.3701Z" fill="white"/>
<path fill-rule="evenodd" clip-rule="evenodd" d="M85.4781 69.2119C85.4781 70.8981 85.4781 72.4567 85.4781 74.0924C64.3674 74.0924 43.3355 74.0924 22.2056 74.0924C22.2056 72.464 22.2056 70.8751 22.2056 69.2119C43.2879 69.2119 64.3307 69.2119 85.4781 69.2119Z" fill="white"/>
<path fill-rule="evenodd" clip-rule="evenodd" d="M22.1824 57.7928C21.9019 53.9257 26.3174 48.6478 31.371 48.9948C35.9919 49.3151 39.9912 53.285 39.9069 58.0361C39.8281 62.6908 35.7599 66.6726 31.1198 66.6864C26.5961 66.7057 22.0357 62.7513 22.1824 57.7928Z" fill="white"/>
<path fill-rule="evenodd" clip-rule="evenodd" d="M19.1738 0.00111122C22.9275 -0.0677313 27.6566 3.06506 27.7666 8.58531C27.8665 13.9358 23.9304 17.5009 19.2756 17.6909C14.5529 17.8846 10.4078 13.9275 10.3454 9.11402C10.2749 3.78286 14.1193 0.252616 19.1738 0.00111122Z" fill="white"/>
<path fill-rule="evenodd" clip-rule="evenodd" d="M31.0769 38.7629C26.7393 38.8143 22.6189 37.879 18.6827 36.0845C14.5642 34.2074 11.2248 31.3518 8.6132 27.6756C7.25013 25.7599 7.61038 24.0444 9.42445 22.9374C10.5052 22.2802 11.6309 22.1654 12.6832 23.0081C13.1681 23.3972 13.6466 23.8314 14.0151 24.3271C18.9577 30.9249 25.8107 32.8268 33.6161 32.2311C35.8032 32.0687 38.0371 31.2793 39.2737 34.0036C39.3351 34.1422 39.5863 34.1844 39.7054 34.3138C40.1546 34.8269 41.063 35.6402 40.9558 35.8229C40.4938 36.5811 39.8301 37.4182 39.0464 37.7128C37.7731 38.1938 36.3468 38.3324 34.9709 38.5096C33.6802 38.6665 32.374 38.6849 31.0769 38.7629Z" fill="white"/>
<path fill-rule="evenodd" clip-rule="evenodd" d="M46.3925 38.415C48.4376 38.415 50.3406 38.415 52.3948 38.415C52.4214 38.6996 52.4737 39.0833 52.4737 39.466C52.481 45.6169 52.4883 51.7622 52.4718 57.9195C52.4682 59.2091 52.2775 60.4758 51.0254 61.1863C49.0554 62.3107 46.8417 61.19 46.4668 58.9274C46.3925 58.4436 46.3962 57.9516 46.3944 57.4605C46.3907 51.5282 46.3925 45.5967 46.3925 39.6716C46.3925 39.232 46.3925 38.7914 46.3925 38.415Z" fill="white"/>
<path fill-rule="evenodd" clip-rule="evenodd" d="M49.4077 28.3781C47.4103 28.3588 45.8566 26.7231 45.8465 24.6128C45.8337 22.6283 47.5176 20.91 49.4829 20.8999C51.3951 20.8917 53.1193 22.7018 53.0533 24.6771C52.9983 26.7745 51.3951 28.3973 49.4077 28.3781Z" fill="white"/>
</svg>
