<svg width="105" height="92" viewBox="0 0 105 92" fill="none" xmlns="http://www.w3.org/2000/svg">
<path d="M16.8049 22.9103C17.3027 22.9775 17.9533 23.0064 18.6574 23.0064C21.8609 23.0064 24.6078 22.2288 26.4453 20.4934C27.8703 19.1464 28.6438 17.1608 28.6438 14.828C28.6438 12.4858 27.6172 10.5086 26.0872 9.3044C24.4869 8.02456 22.1084 7.39258 18.7661 7.39258C15.4567 7.39258 13.112 7.59982 11.446 7.87894V31.4341H16.8039V22.9103H16.8049ZM16.8049 11.6774C17.2024 11.5588 17.9355 11.4627 19.0408 11.4627C21.7512 11.4627 23.2831 12.7771 23.2831 14.9727C23.2831 17.4073 21.5028 18.8645 18.6208 18.8645C17.8333 18.8645 17.2708 18.8327 16.8039 18.7198V11.6774H16.8049Z" fill="white"/>
<path d="M6.67388 38.819H33.4089C36.7952 38.819 39.5431 36.0941 39.5431 32.7288V6.10888C39.5431 2.72771 36.7952 0 33.4089 0H6.67388C3.29508 0 0.555664 2.72771 0.555664 6.10888V32.7279C0.555664 36.0941 3.29414 38.819 6.67388 38.819ZM5.39792 6.46548C5.39792 5.55251 6.13668 4.82064 7.04794 4.82064H33.0499C33.9677 4.82064 34.6915 5.55251 34.6915 6.46548V32.3563C34.6915 33.2665 33.9686 34.018 33.0499 34.018H7.04701C6.13574 34.018 5.39698 33.2656 5.39698 32.3563V6.46548H5.39792Z" fill="white"/>
<path d="M25.3512 70.7021C19.4327 70.7021 14.6626 75.4574 14.6626 81.3516C14.6626 87.229 19.4524 92.0001 25.3512 92.0001C31.2519 92.0001 36.0538 87.229 36.0538 81.3516C36.0538 75.4574 31.2528 70.7021 25.3512 70.7021ZM25.3512 84.5666C23.5718 84.5666 22.129 83.1206 22.129 81.3525C22.129 79.5826 23.5718 78.1385 25.3512 78.1385C27.1325 78.1385 28.5856 79.5826 28.5856 81.3525C28.5865 83.1206 27.1325 84.5666 25.3512 84.5666Z" fill="white"/>
<path d="M103.223 72.6174L101.479 58.4439C101.139 55.7349 98.7408 53.7362 95.9854 53.8828L92.1529 54.0947L80.2511 43.4154C79.1092 42.3885 77.628 41.8237 76.0783 41.8237H51.9017C46.4875 41.8237 41.2178 43.6721 36.9755 47.0476L23.496 57.8437L5.34476 62.359C3.03848 62.9416 1.38658 65.0205 1.38658 67.4215V72.6174C0.615946 72.6174 0 73.2344 0 73.9989V80.8957C0 81.8722 0.795011 82.6684 1.78221 82.6684H12.017C11.9833 82.2288 11.8886 81.8059 11.8886 81.3513C11.8886 73.9476 17.9196 67.9573 25.3504 67.9573C32.7848 67.9573 38.8037 73.9476 38.8037 81.3513C38.8037 81.8059 38.7024 82.2288 38.6621 82.6684H67.0266C66.9769 82.2288 66.8972 81.8059 66.8972 81.3513C66.8972 73.9476 72.9123 67.9573 80.3477 67.9573C87.784 67.9573 93.7982 73.9476 93.7982 81.3513C93.7982 81.8059 93.7166 82.2288 93.6669 82.6684H103.221C104.201 82.6684 105 81.8712 105 80.8957V74.4032C105.02 73.4136 104.217 72.6174 103.223 72.6174ZM67.3369 55.199L33.6052 56.9027L40.0656 51.7404C43.5794 48.9315 47.9322 47.3884 52.4314 47.3884H67.3369V55.199ZM72.9488 54.9227V47.4042H75.1482C75.8992 47.4042 76.6323 47.6824 77.2023 48.1856L84.0818 54.3523L72.9488 54.9227Z" fill="white"/>
<path d="M80.3645 70.7021C74.4469 70.7021 69.6543 75.4574 69.6543 81.3516C69.6543 87.229 74.4469 92.0001 80.3645 92.0001C86.268 92.0001 91.0427 87.229 91.0427 81.3516C91.0427 75.4574 86.2511 70.7021 80.3645 70.7021ZM80.3645 84.5666C78.5719 84.5666 77.1207 83.1206 77.1207 81.3525C77.1207 79.5826 78.5719 78.1385 80.3645 78.1385C82.127 78.1385 83.5764 79.5826 83.5764 81.3525C83.5764 83.1206 82.127 84.5666 80.3645 84.5666Z" fill="white"/>
</svg>
