<svg width="91" height="92" viewBox="0 0 91 92" fill="none" xmlns="http://www.w3.org/2000/svg">
<path fill-rule="evenodd" clip-rule="evenodd" d="M41.9135 91.9999C39.4452 91.0588 36.8508 90.3633 34.5307 89.1347C26.1473 84.6987 21.3148 74.4074 22.9282 65.4824C24.8505 54.854 32.7141 47.3149 43.0334 46.1035C55.1937 44.6773 65.8879 52.9692 67.9922 65.7151C69.9061 77.3111 62.3683 88.4289 51.2924 91.2299C50.5297 91.4242 49.795 91.7407 49.0492 91.9999C46.6698 91.9999 44.2929 91.9999 41.9135 91.9999ZM45.5152 48.9199C34.5755 48.9054 25.5048 58.0999 25.5607 69.1501C25.6149 79.9838 34.5925 89.0457 45.3349 89.1108C56.3212 89.1758 65.3716 80.0873 65.364 68.9952C65.3555 58.0032 56.3898 48.9344 45.5152 48.9199Z" fill="white"/>
<path fill-rule="evenodd" clip-rule="evenodd" d="M0 17.1879C2.02474 14.7239 4.04779 12.26 6.296 9.52051C13.5172 22.0243 20.5945 34.2782 27.6151 46.4338C25.5158 48.7728 23.5376 50.9784 21.4325 53.3269C18.2955 48.0687 15.1754 42.8106 12.0274 37.5704C8.03041 30.9194 4.01139 24.2829 0.000846403 17.6405C-6.13913e-08 17.489 0 17.3376 0 17.1879Z" fill="white"/>
<path fill-rule="evenodd" clip-rule="evenodd" d="M73.8212 0.243164C72.2993 2.85599 70.9762 5.27547 69.4831 7.58202C69.1284 8.12956 68.2007 8.58899 67.5337 8.59156C52.8331 8.64802 38.1317 8.64802 23.4303 8.59156C22.7642 8.58899 21.8356 8.13042 21.4809 7.58458C19.9869 5.27718 18.6639 2.8577 17.1411 0.243164C36.0892 0.243164 54.802 0.243164 73.8212 0.243164Z" fill="white"/>
<path fill-rule="evenodd" clip-rule="evenodd" d="M13.9847 0.0229492C21.972 13.8631 29.8119 27.4457 37.7314 41.1652C35.0752 42.3912 32.5706 43.5479 29.8966 44.7833C26.9763 39.7518 24.0484 34.7255 21.1391 29.6889C17.1378 22.765 13.1908 15.8086 9.12095 8.92659C8.33374 7.59536 8.34983 6.71672 9.37405 5.58997C10.9205 3.88573 12.3223 2.04631 13.9847 0.0229492Z" fill="white"/>
<path fill-rule="evenodd" clip-rule="evenodd" d="M60.9079 44.715C58.4464 43.5797 55.9773 42.4384 53.2339 41.1713C61.0899 27.5553 68.9519 13.9291 76.9882 0C78.8073 2.2458 80.5552 4.33162 82.1991 6.50127C82.464 6.84948 82.4733 7.68706 82.2431 8.08574C75.1683 20.2969 68.0487 32.4816 60.9079 44.715Z" fill="white"/>
<path fill-rule="evenodd" clip-rule="evenodd" d="M84.6779 9.49316C86.921 12.266 88.9271 14.7445 91.0001 17.3068C83.8289 29.3426 76.6898 41.3271 69.5372 53.3329C67.4303 50.981 65.453 48.7772 63.3521 46.4347C70.3472 34.3159 77.4042 22.0919 84.6779 9.49316Z" fill="white"/>
<path fill-rule="evenodd" clip-rule="evenodd" d="M23.9194 11.7637C38.4312 11.7637 52.5663 11.7637 67.046 11.7637C65.4639 14.4783 64.0622 16.9962 62.5191 19.4234C62.2499 19.846 61.3823 20.0624 60.7897 20.065C50.5568 20.1027 40.3231 20.1078 30.0893 20.053C29.4655 20.0505 28.5835 19.6689 28.2669 19.1718C26.7923 16.861 25.4727 14.4501 23.9194 11.7637Z" fill="white"/>
<path fill-rule="evenodd" clip-rule="evenodd" d="M62.4623 69.1029C62.4547 78.8527 55.0685 86.1949 45.2808 86.177C35.7945 86.1607 28.4962 78.6644 28.4844 68.9266C28.4725 59.2188 35.9079 51.8355 45.6786 51.8526C55.1768 51.8688 62.4691 59.3642 62.4623 69.1029ZM43.3365 80.4868C45.2004 80.4868 46.6538 80.4868 48.2214 80.4868C48.2214 72.7715 48.2214 65.1811 48.2214 57.6129C44.9574 57.2168 45.0548 57.3101 43.179 59.348C42.0922 60.5286 40.72 61.5185 39.3183 62.3065C36.5927 63.8362 36.5165 63.8208 37.3359 67.308C39.2819 66.3344 41.1788 65.3873 43.3365 64.3084C43.3365 69.7292 43.3365 75.0002 43.3365 80.4868Z" fill="white"/>
</svg>
