<svg width="108" height="92" viewBox="0 0 108 92" fill="none" xmlns="http://www.w3.org/2000/svg">
<path fill-rule="evenodd" clip-rule="evenodd" d="M53.6875 13.1964C55.6675 11.3826 57.5405 9.53865 59.5465 7.85415C65.2895 3.03025 71.8225 0.0903961 79.4175 0.0151951C93.2375 -0.120167 104.102 7.4992 107.227 20.7356C108.609 26.6003 108.01 32.4128 106.445 38.1712C106.25 38.8901 105.82 38.9041 105.246 38.9031C96.6425 38.8951 88.0375 38.8991 79.4335 38.8991C74.2495 38.8991 69.0655 38.8771 63.8815 38.9172C63.0475 38.9242 62.6735 38.6565 62.4395 37.8744C61.9945 36.3914 61.4615 34.9355 60.9405 33.4766C60.4175 32.0087 59.7555 31.4532 58.6075 31.4572C57.3915 31.4592 56.6465 32.0448 56.1515 33.4947C54.3735 38.7096 52.6155 43.9326 50.8485 49.1525C50.7805 49.3511 50.6865 49.5406 50.5355 49.9005C50.3615 49.5025 50.2245 49.2398 50.1295 48.962C46.5965 38.6765 43.0665 28.386 39.5375 18.0965C39.5145 18.0293 39.4965 17.9582 39.4725 17.891C38.9325 16.3358 37.9465 15.4424 36.7835 15.4555C35.6545 15.4675 34.7135 16.3248 34.1885 17.8549C31.7075 25.0762 29.2335 32.3005 26.7555 39.5228C26.6305 39.8898 26.4905 40.2518 26.2745 40.8483C25.4095 38.3527 24.6445 36.0856 23.8295 33.8366C23.6245 33.2741 23.3465 32.6845 22.9435 32.2614C21.7235 30.984 20.0055 31.2838 19.2005 32.854C18.2965 34.6167 17.3805 36.3744 16.5135 38.1562C16.2365 38.7247 15.8745 38.9172 15.2575 38.9152C11.0465 38.8931 6.83348 38.9172 2.62148 38.8731C2.27848 38.8701 1.71348 38.5241 1.63048 38.2313C-0.712522 29.867 -0.866523 21.629 3.41048 13.7639C7.51948 6.20675 14.0495 2.02156 22.3775 0.526562C32.9945 -1.37652 42.0175 1.97042 49.8515 9.08644C50.5975 9.76325 51.3025 10.4902 51.9885 11.2302C52.6495 11.9421 53.2605 12.7001 53.6875 13.1964Z" fill="white"/>
<path fill-rule="evenodd" clip-rule="evenodd" d="M20.9135 40.2319C21.8925 43.0674 22.7845 45.6483 23.6755 48.2312C24.2095 49.7794 25.1025 50.5785 26.2885 50.5755C27.4585 50.5725 28.3715 49.7633 28.9025 48.2152C31.3785 40.9919 33.8456 33.7646 36.3195 26.5383C36.4576 26.1362 36.6145 25.7411 36.8305 25.1636C38.1115 28.8825 39.3355 32.42 40.5495 35.9604C42.9685 43.0133 45.3835 50.0681 47.8005 57.121C47.8705 57.3255 47.9395 57.5301 48.0175 57.7306C48.5265 59.0401 49.4276 59.753 50.5485 59.737C51.6955 59.722 52.6005 59.0251 53.0585 57.7066C54.0485 54.8459 55.0045 51.9762 55.9765 49.1106C56.7935 46.6931 57.6145 44.2757 58.4915 41.6867C58.6955 41.9966 58.8365 42.172 58.9365 42.3686C59.4785 43.4224 60.3565 43.8044 61.5065 43.8024C71.6585 43.7884 81.8145 43.7934 91.9665 43.7934C95.6035 43.7934 99.2395 43.7944 102.876 43.7994C103.191 43.7994 103.505 43.8345 104 43.8636C102.265 47.1614 100.006 49.8786 97.5355 52.5137C97.2895 52.3924 97.0616 52.3061 96.8586 52.1808C82.4156 43.263 63.9886 51.2142 60.5386 67.8808C59.7046 71.9145 59.9535 75.9233 61.2825 79.8357C61.5355 80.5777 61.3935 81.0229 60.8795 81.6265C58.7555 84.1182 56.7235 86.694 54.6615 89.2419C54.4415 89.5136 54.2455 89.8034 53.9865 90.1533C53.1545 89.0002 52.3815 87.9233 51.6035 86.8515C47.8026 81.6125 42.9095 77.5616 37.6885 73.8397C31.7065 69.5743 25.7215 65.3049 19.8625 60.874C14.9665 57.1731 10.4195 53.0561 6.71755 48.1019C5.75455 46.8144 4.90855 45.4358 3.86255 43.8826C4.50155 43.8415 4.86955 43.7984 5.23755 43.7984C9.01755 43.7934 12.8005 43.7252 16.5785 43.8255C18.3725 43.8736 19.5535 43.27 20.1885 41.5835C20.3395 41.1864 20.5905 40.8264 20.9135 40.2319Z" fill="white"/>
<path fill-rule="evenodd" clip-rule="evenodd" d="M84.0925 91.9989C73.5135 92.1032 64.7045 83.3588 64.6185 72.6682C64.5345 61.9987 73.1965 53.1049 83.7805 52.9976C94.4895 52.8873 103.384 61.4983 103.491 72.0846C103.608 83.1773 95.1175 91.8926 84.0925 91.9989ZM68.4215 72.4998C68.3885 81.1449 75.4025 88.2228 84.0355 88.2519C92.6205 88.2819 99.7335 81.198 99.7765 72.579C99.8175 64.0542 92.7745 56.8369 84.3835 56.8028C75.4465 56.7677 68.4545 63.6441 68.4215 72.4998Z" fill="white"/>
<path fill-rule="evenodd" clip-rule="evenodd" d="M86.9295 69.6692C89.3255 69.6692 91.6205 69.6652 93.9185 69.6712C95.4285 69.6742 95.7005 69.9469 95.7005 71.4179C95.7005 72.21 95.7055 73.0051 95.6955 73.7992C95.6805 75.0345 95.4145 75.3223 94.1565 75.3353C92.1065 75.3564 90.0525 75.3845 88.0035 75.3283C87.0985 75.3043 86.8275 75.6101 86.8535 76.5015C86.9115 78.558 86.8805 80.6165 86.8665 82.673C86.8585 83.9083 86.6245 84.1379 85.4115 84.1619C84.5135 84.18 83.6125 84.183 82.7125 84.168C81.5665 84.1489 81.2615 83.8371 81.2565 82.6559C81.2445 80.2776 81.2535 77.8992 81.2535 75.3434C79.7595 75.3434 78.3355 75.3414 76.9095 75.3434C75.9375 75.3454 74.9675 75.3684 73.9935 75.3534C72.7885 75.3323 72.4355 74.9844 72.4165 73.8123C72.4015 72.946 72.4015 72.0796 72.4165 71.2133C72.4355 70.0512 72.8055 69.6792 73.9895 69.6732C76.3605 69.6612 78.7295 69.6692 81.2525 69.6692C81.2525 68.5161 81.2525 67.4463 81.2525 66.3784C81.2525 65.0428 81.2425 63.7073 81.2545 62.3727C81.2655 61.1895 81.6055 60.8506 82.8135 60.8256C83.6775 60.8095 84.5425 60.8045 85.4065 60.8286C86.5425 60.8586 86.8675 61.1895 86.8745 62.3456C86.8875 64.367 86.8715 66.3874 86.8755 68.4088C86.8745 68.7949 86.9075 69.1799 86.9295 69.6692Z" fill="white"/>
</svg>
