<svg width="32" height="32" viewBox="0 0 32 32" fill="none" xmlns="http://www.w3.org/2000/svg">
<path fill-rule="evenodd" clip-rule="evenodd" d="M16.0001 31C24.2844 31 31.0001 24.2843 31.0001 16C31.0001 7.71573 24.2844 1 16.0001 1C7.71585 1 1.00012 7.71573 1.00012 16C1.00012 24.2843 7.71585 31 16.0001 31Z" fill="white" fill-opacity="0.6" stroke="white"/>
<path fill-rule="evenodd" clip-rule="evenodd" d="M12.6009 15.5311L16.2688 11.9931C16.5371 11.7346 16.9709 11.7346 17.2392 11.9931C17.507 12.2516 17.507 12.6705 17.2392 12.9289L14.0561 15.999L17.2392 19.0695C17.507 19.328 17.507 19.7469 17.2392 20.0054C16.9709 20.2638 16.5371 20.2638 16.2688 20.0054L12.6009 16.4669C12.3331 16.2084 12.3331 15.7896 12.6009 15.5311Z" fill="white"/>
</svg>
