<svg width="32" height="32" viewBox="0 0 32 32" fill="none" xmlns="http://www.w3.org/2000/svg">
<path fill-rule="evenodd" clip-rule="evenodd" d="M16 31C24.2843 31 31 24.2843 31 16C31 7.71573 24.2843 1 16 1C7.71573 1 1 7.71573 1 16C1 24.2843 7.71573 31 16 31Z" fill="#28B0A9" stroke="#28B0A9"/>
<path fill-rule="evenodd" clip-rule="evenodd" d="M19.0384 16.4687L15.3705 20.0067C15.1022 20.2652 14.6684 20.2652 14.4001 20.0067C14.1323 19.7482 14.1323 19.3293 14.4001 19.0708L17.5832 16.0008L14.4001 12.9303C14.1323 12.6718 14.1323 12.2529 14.4001 11.9944C14.6684 11.7359 15.1022 11.7359 15.3705 11.9944L19.0384 15.5328C19.3062 15.7913 19.3062 16.2102 19.0384 16.4687Z" fill="white"/>
</svg>
